<svg width="207" height="207" viewBox="0 0 207 207" fill="none" xmlns="http://www.w3.org/2000/svg">
<path d="M152.761 127.883H54.2389C50.8897 127.883 48.1744 125.167 48.1744 121.818V97.5605C48.1744 96.1196 48.6879 94.7247 49.6222 93.6275C63.1011 77.8049 82.7386 68.7305 103.5 68.7305C124.261 68.7305 143.899 77.8049 157.378 93.6275C158.313 94.7247 158.826 96.1192 158.826 97.5605V121.818C158.826 125.167 156.11 127.883 152.761 127.883Z" fill="#74A758"/>
<path d="M152.761 127.883C156.11 127.883 158.826 125.167 158.826 121.818V97.5605C158.826 96.1196 158.312 94.7247 157.378 93.6275C143.899 77.8049 124.261 68.7305 103.5 68.7305V127.883H152.761Z" fill="#486A36"/>
<path d="M103.5 207C102.779 207 102.057 206.871 101.371 206.614L36.6831 182.356C34.3163 181.469 32.748 179.206 32.748 176.678V91.7753C32.748 89.7862 33.7232 87.924 35.3582 86.7908C36.9928 85.6575 39.0793 85.398 40.9419 86.097L103.5 109.556L166.058 86.097C167.919 85.398 170.007 85.6575 171.642 86.7908C173.277 87.924 174.252 89.7862 174.252 91.7753V176.678C174.252 179.206 172.684 181.469 170.317 182.356L105.629 206.614C104.943 206.871 104.221 207 103.5 207Z" fill="#99D53B"/>
<path d="M170.317 182.356C172.684 181.469 174.252 179.206 174.252 176.678V91.7753C174.252 89.7862 173.277 87.924 171.642 86.7908C170.007 85.6575 167.92 85.398 166.058 86.097L103.5 109.556V207C104.221 207 104.943 206.871 105.629 206.614L170.317 182.356Z" fill="#82B732"/>
<path d="M103.5 80.8594C81.2067 80.8594 63.0703 62.723 63.0703 40.4297C63.0703 18.1364 81.2067 0 103.5 0C125.793 0 143.93 18.1364 143.93 40.4297C143.93 62.723 125.793 80.8594 103.5 80.8594Z" fill="white"/>
<path d="M143.93 40.4297C143.93 18.1364 125.793 0 103.5 0V80.8594C125.793 80.8594 143.93 62.723 143.93 40.4297Z" fill="#EFEFEF"/>
<path d="M173.241 153.633H167.177C163.276 153.633 160.102 150.459 160.102 146.558V126.343C160.102 122.442 163.276 119.268 167.177 119.268H173.241C182.716 119.268 190.424 126.975 190.424 136.45C190.424 145.925 182.716 153.633 173.241 153.633Z" fill="white"/>
<path d="M39.8232 153.633H33.7588C24.2841 153.633 16.5762 145.925 16.5762 136.45C16.5762 126.975 24.2841 119.268 33.7588 119.268H39.8232C43.7243 119.268 46.8984 122.442 46.8984 126.343V146.558C46.8984 150.459 43.7243 153.633 39.8232 153.633Z" fill="white"/>
</svg>
