<svg width="200" height="70" viewBox="0 0 40 14" fill="none" xmlns="http://www.w3.org/2000/svg">
	<path d="M2.4185 11V2.288H2.4305L6.4865 8.06L10.5665 2.288H10.5785V11H10.0025V4.004L6.4985 8.936H6.4745L2.9945 4.064V11H2.4185Z" fill="#fff"></path>
	<rect x="0.25" y="0.25" width="12.5" height="13.5" stroke="#fff" stroke-width="0.5"></rect>
	<path d="M21.476 10.436C21.204 10.604 20.864 10.76 20.456 10.904C20.056 11.04 19.608 11.104 19.112 11.096C18.464 11.096 17.876 10.984 17.348 10.76C16.82 10.528 16.368 10.216 15.992 9.824C15.616 9.424 15.324 8.968 15.116 8.456C14.916 7.936 14.816 7.384 14.816 6.8C14.816 6.176 14.924 5.596 15.14 5.06C15.356 4.524 15.66 4.056 16.052 3.656C16.444 3.256 16.9 2.944 17.42 2.72C17.94 2.496 18.504 2.384 19.112 2.384C19.56 2.384 19.98 2.444 20.372 2.564C20.764 2.684 21.12 2.84 21.44 3.032L21.188 3.572C20.908 3.396 20.592 3.248 20.24 3.128C19.888 3.008 19.516 2.948 19.124 2.948C18.62 2.948 18.144 3.048 17.696 3.248C17.248 3.44 16.852 3.712 16.508 4.064C16.172 4.408 15.908 4.812 15.716 5.276C15.524 5.74 15.428 6.24 15.428 6.776C15.428 7.464 15.58 8.092 15.884 8.66C16.188 9.228 16.616 9.684 17.168 10.028C17.72 10.364 18.372 10.532 19.124 10.532C19.54 10.532 19.92 10.476 20.264 10.364C20.616 10.244 20.928 10.096 21.2 9.92L21.476 10.436ZM25.3089 11.096C24.8609 11.096 24.4529 10.996 24.0849 10.796C23.7249 10.588 23.4369 10.3 23.2209 9.932C23.0129 9.564 22.9089 9.136 22.9089 8.648C22.9089 8.128 23.0209 7.684 23.2449 7.316C23.4689 6.94 23.7729 6.656 24.1569 6.464C24.5409 6.264 24.9769 6.164 25.4649 6.164C25.8489 6.164 26.2169 6.276 26.5689 6.5C26.9289 6.716 27.1969 6.992 27.3729 7.328L27.4329 6.308H27.9369V11H27.3729V10.004C27.1969 10.284 26.9249 10.536 26.5569 10.76C26.1889 10.984 25.7729 11.096 25.3089 11.096ZM25.4289 10.616C25.7809 10.616 26.0969 10.544 26.3769 10.4C26.6649 10.248 26.8969 10.04 27.0729 9.776C27.2489 9.512 27.3489 9.208 27.3729 8.864V8.192C27.3089 7.896 27.1809 7.632 26.9889 7.4C26.8049 7.168 26.5769 6.984 26.3049 6.848C26.0329 6.712 25.7369 6.644 25.4169 6.644C25.0649 6.644 24.7409 6.728 24.4449 6.896C24.1489 7.056 23.9129 7.284 23.7369 7.58C23.5609 7.876 23.4729 8.224 23.4729 8.624C23.4729 8.992 23.5609 9.328 23.7369 9.632C23.9129 9.928 24.1489 10.168 24.4449 10.352C24.7489 10.528 25.0769 10.616 25.4289 10.616ZM30.56 6.308L30.608 7.424C30.728 7.168 30.896 6.948 31.112 6.764C31.336 6.572 31.576 6.428 31.832 6.332C32.096 6.228 32.348 6.176 32.588 6.176L32.564 6.728C32.204 6.728 31.876 6.808 31.58 6.968C31.292 7.128 31.06 7.344 30.884 7.616C30.716 7.88 30.632 8.18 30.632 8.516V11H30.068V6.308H30.56ZM35.9021 11.096C35.4621 11.096 35.0621 10.992 34.7021 10.784C34.3421 10.568 34.0541 10.272 33.8381 9.896C33.6301 9.52 33.5261 9.096 33.5261 8.624C33.5261 8.12 33.6341 7.684 33.8501 7.316C34.0661 6.948 34.3581 6.664 34.7261 6.464C35.1021 6.264 35.5141 6.164 35.9621 6.164C36.3781 6.164 36.7741 6.264 37.1501 6.464C37.5261 6.664 37.8181 6.928 38.0261 7.256V1.88H38.5901V11H38.0141V10.028C37.7981 10.348 37.5021 10.608 37.1261 10.808C36.7501 11 36.3421 11.096 35.9021 11.096ZM36.0461 10.604C36.4061 10.604 36.7301 10.528 37.0181 10.376C37.3061 10.216 37.5381 10.004 37.7141 9.74C37.8901 9.468 37.9901 9.164 38.0141 8.828V8.228C37.9581 7.924 37.8341 7.652 37.6421 7.412C37.4501 7.172 37.2181 6.984 36.9461 6.848C36.6741 6.704 36.3741 6.632 36.0461 6.632C35.6861 6.632 35.3581 6.716 35.0621 6.884C34.7661 7.052 34.5301 7.284 34.3541 7.58C34.1781 7.876 34.0901 8.22 34.0901 8.612C34.0901 8.98 34.1781 9.316 34.3541 9.62C34.5301 9.916 34.7661 10.156 35.0621 10.34C35.3661 10.516 35.6941 10.604 36.0461 10.604Z" fill="#fff"></path>
</svg>