<svg
			width="70"
			height="70"
			viewBox="0 0 70 70"
			fill="none"
			xmlns="http://www.w3.org/2000/svg"
		>
			<path
				fill-rule="evenodd"
				clip-rule="evenodd"
				d="M35 70C15.67 70 0 54.33 0 35C0 15.67 15.67 0 35 0C54.33 0 70 15.67 70 35C70 54.33 54.33 70 35 70ZM35 63.6364C50.8154 63.6364 63.6364 50.8154 63.6364 35C63.6364 19.1846 50.8154 6.36365 35 6.36365C19.1846 6.36365 6.36365 19.1846 6.36365 35C6.36365 50.8154 19.1846 63.6364 35 63.6364ZM50.9091 31.8182H38.1818V19.0909H31.8182V31.8182H19.0909V38.1818H31.8182V50.9091H38.1818V38.1818H50.9091V31.8182Z"
				fill="#555555"
			/>
		</svg>